<svg width="28" height="25" viewBox="0 0 28 25" fill="none" xmlns="http://www.w3.org/2000/svg">
<path d="M10 0.666626L7.56002 3.33329H3.33335C1.86669 3.33329 0.666687 4.53329 0.666687 5.99996V22C0.666687 23.4666 1.86669 24.6666 3.33335 24.6666H24.6667C26.1334 24.6666 27.3334 23.4666 27.3334 22V5.99996C27.3334 4.53329 26.1334 3.33329 24.6667 3.33329H20.44L18 0.666626H10ZM14 20.6666C10.32 20.6666 7.33335 17.68 7.33335 14C7.33335 10.32 10.32 7.33329 14 7.33329C17.68 7.33329 20.6667 10.32 20.6667 14C20.6667 17.68 17.68 20.6666 14 20.6666Z" fill="#2A7AE4"/>
</svg>
