<?xml version="1.0" standalone="no"?>
<!DOCTYPE svg PUBLIC "-//W3C//DTD SVG 20010904//EN"
 "http://www.w3.org/TR/2001/REC-SVG-20010904/DTD/svg10.dtd">
<svg version="1.0" xmlns="http://www.w3.org/2000/svg"
 width="1280.000000pt" height="1280.000000pt" viewBox="0 0 1280.000000 1280.000000"
 preserveAspectRatio="xMidYMid meet">
<g transform="translate(0.000000,1280.000000) scale(0.100000,-0.100000)"
fill="#000000" stroke="none">
<path d="M710 9986 c8 -8 1282 -958 2829 -2111 2437 -1816 2818 -2096 2837
-2089 28 11 5643 4197 5644 4207 0 4 -2548 7 -5662 7 -4851 0 -5660 -2 -5648
-14z"/>
<path d="M637 8017 c-4 -804 -7 -2283 -7 -3287 l0 -1825 39 40 c21 22 807 917
1746 1989 1642 1875 1706 1949 1688 1966 -16 16 -3422 2556 -3449 2573 -8 4
-13 -433 -17 -1456z"/>
<path d="M10338 8182 c-951 -708 -1727 -1293 -1725 -1299 2 -15 3449 -3952
3460 -3952 4 -1 7 1471 7 3269 0 1799 -3 3270 -7 3270 -5 0 -785 -580 -1735
-1288z"/>
<path d="M2752 4763 l-1663 -1898 2641 -3 c1453 -1 3826 -1 5275 0 l2632 3
-1661 1897 c-913 1043 -1665 1897 -1671 1897 -5 0 -441 -321 -968 -714 -528
-393 -966 -715 -974 -715 -8 0 -447 322 -974 715 -528 393 -963 715 -967 715
-4 0 -756 -854 -1670 -1897z"/>
</g>
</svg>
