<svg width="23" height="31" viewBox="0 0 23 31" fill="none" xmlns="http://www.w3.org/2000/svg">
<path d="M13.3333 3.00004C13.3333 1.53337 14.5333 0.333374 16 0.333374C17.4667 0.333374 18.6667 1.53337 18.6667 3.00004C18.6667 4.46671 17.4667 5.66671 16 5.66671C14.5333 5.66671 13.3333 4.46671 13.3333 3.00004ZM5.66667 29C5.12 29 4.66667 29.4534 4.66667 30C4.66667 30.5467 5.12 31 5.66667 31C6.21333 31 6.66667 30.5467 6.66667 30C6.66667 29.4534 6.21333 29 5.66667 29ZM17 29C16.4533 29 16 29.4534 16 30C16 30.5467 16.4533 31 17 31C17.5467 31 18 30.5467 18 30C18 29.4534 17.5467 29 17 29ZM21.6533 24.3334C21.3333 24.3334 21.0533 24.48 20.8667 24.7334C20.1333 25.7067 18.9733 26.3334 17.6667 26.3334H17.3333V18.3334L11.5733 14.7734L13.9733 10.92C15.5067 13.3734 18.24 15 21.3333 15V12.3334C18.8667 12.3334 16.7467 10.84 15.8267 8.70671L15.1333 7.09337C14.88 6.52004 14.1467 5.66671 12.9333 5.66671H5.33333L2 11L4.26667 12.4134L6.8 8.33337H9.93333L6.73333 13.4534C6.32 14.12 6.21333 14.9334 6.45333 15.68L8.24 21.2134L4.08 26.2267C3.14667 26.0134 2.34667 25.4667 1.8 24.7334C1.61333 24.48 1.32 24.3334 1 24.3334C0.413333 24.3334 0 24.8134 0 25.3334C0 25.5334 0.0666668 25.7467 0.2 25.9334C1.29333 27.4 3.04 28.3334 5 28.3334H17.6667C19.6267 28.3334 21.3733 27.4 22.4667 25.9334C22.6 25.7467 22.6667 25.5334 22.6667 25.3334C22.6667 24.8134 22.24 24.3334 21.6533 24.3334ZM14.6667 26.3334H7.46667L11.3333 21.6667L10 17.2667L14.6667 20.2V26.3334Z" fill="#2A7AE4"/>
</svg>
